<svg xmlns="http://www.w3.org/2000/svg" aria-hidden="true" style="position:absolute;width:0;height:0;overflow:hidden">
  <defs>
    <symbol id="icon-close" viewBox="0 0 32 32">
      <path d="M5.21 5.21a2.182 2.182 0 0 1 3.086 0l7.717 7.717L23.73 5.21a2.186 2.186 0 0 1 3.059.026 2.181 2.181 0 0 1 .026 3.059l-7.717 7.717 7.717 7.717a2.186 2.186 0 0 1-.026 3.059 2.181 2.181 0 0 1-3.059.026l-7.717-7.717-7.717 7.717a2.182 2.182 0 0 1-3.085-3.085l7.717-7.717-7.717-7.717a2.182 2.182 0 0 1 0-3.086z"/>
    </symbol>
    <symbol id="icon-cross" viewBox="0 0 30 32">
      <path stroke-linecap="round" stroke-linejoin="round" stroke-width="3.388" d="M1.882 29.559 28.235 3.206M28.235 29.559 1.882 3.206"/>
    </symbol>
    <symbol id="icon-left-arrow" viewBox="0 0 40 32">
  <path fill="#a50000" d="m1.168 13.684-.07.05c-1.082.78-1.374 2.327-.83 3.509.196.424.504.799.888 1.065l18.149 13.066c.434.396.987.626 1.578.626 1.464 0 2.458-1.325 2.458-2.715v-4.339h13.832a2.932 2.932 0 0 0 2.928-2.927V9.982a2.933 2.933 0 0 0-2.928-2.927H23.341v-4.34c0-1.391-.994-2.715-2.457-2.715a2.303 2.303 0 0 0-1.376.459L1.168 13.684z"/>
  <path d="M20.346 1.607a.88.88 0 0 1 .537-.185c.572 0 1.035.578 1.035 1.293v5.762h15.255a1.51 1.51 0 0 1 1.505 1.505v12.037c0 .828-.677 1.504-1.505 1.504H21.918v5.762c0 .714-.463 1.294-1.035 1.294a.913.913 0 0 1-.617-.253l-.089-.083L1.974 17.144a1.217 1.217 0 0 1-.413-.497c-.285-.615-.115-1.411.368-1.76l.064-.045L20.347 1.607z" fill="url(#left-arrow-yellow-gradient)"/>
  <defs>
    <radialGradient id="left-arrow-yellow-gradient" cx="0" cy="0" r="1" gradientUnits="userSpaceOnUse" gradientTransform="translate(20 29.687) scale(30 30)">
      <stop stop-color="#FFF200"/>
      <stop offset="1" stop-color="#FFEE52"/>
    </radialGradient>
  </defs>
</symbol>
    <symbol id="icon-menu" viewBox="0 0 32 32">
      <path d="M26.667 23.333a1.998 1.998 0 0 1 .192 3.989l-.192.009H5.334a2.001 2.001 0 0 1-1.512-3.308 2 2 0 0 1 1.32-.682l.192-.009h21.333zm0-9.333a2 2 0 0 1 0 4H5.334a2 2 0 0 1 0-4h21.333zm0-9.333a2 2 0 0 1 0 4H5.334a2 2 0 0 1 0-4h21.333z"/>
    </symbol>
    <symbol id="icon-remove" viewBox="0 0 32 32">
      <path d="M8 17.333c-.378 0-.694-.128-.95-.383s-.383-.572-.383-.95.128-.694.383-.95c.256-.256.572-.383.95-.383h16c.378 0 .695.128.95.383s.383.572.383.95-.128.694-.383.95a1.288 1.288 0 0 1-.95.383H8z"/>
    </symbol>
    <symbol id="icon-right-arrow" viewBox="0 0 41 32">
  <path fill="#a50000" d="m39.587 13.684.07.05c1.082.78 1.374 2.327.83 3.509a2.656 2.656 0 0 1-.888 1.065L21.45 31.374a2.335 2.335 0 0 1-1.578.626c-1.464 0-2.458-1.325-2.458-2.715v-4.339H3.582a2.932 2.932 0 0 1-2.928-2.927V9.982a2.933 2.933 0 0 1 2.928-2.927h13.832v-4.34c0-1.391.994-2.715 2.457-2.715.503-.001.979.166 1.376.459l18.34 13.225z"/>
  <path d="M20.409 1.607a.88.88 0 0 0-.537-.185c-.572 0-1.035.578-1.035 1.293v5.762H3.582a1.51 1.51 0 0 0-1.505 1.505v12.037c0 .828.677 1.504 1.505 1.504h15.255v5.762c0 .714.463 1.294 1.035 1.294a.913.913 0 0 0 .617-.253l.089-.083 18.203-13.099c.169-.114.318-.29.413-.497.285-.615.115-1.411-.368-1.76l-.064-.045L20.408 1.607z" fill="url(#arrow-yellow-gradient)"/>
  <defs>
    <radialGradient id="arrow-yellow-gradient" cx="0" cy="0" r="1" gradientUnits="userSpaceOnUse" gradientTransform="translate(20.663 29.687) scale(31.1277 31.1277)">
      <stop stop-color="#FFF200"/>
      <stop offset="1" stop-color="#FFEE52"/>
    </radialGradient>
  </defs>
</symbol>
 <symbol id="icon-empty-star" viewBox="0 0 32 32">
      <path fill="#fff2da" d="m16.627.41 4.566 9.704L31.4 11.67c.264.041.483.235.566.501s.014.557-.178.752l-7.384 7.551 1.743 10.665c.046.275-.062.553-.278.718s-.502.186-.739.056L16 26.879l-9.13 5.036c-.236.13-.523.109-.739-.055s-.324-.443-.278-.718l1.743-10.667L.21 12.923c-.191-.195-.26-.487-.177-.752s.301-.46.566-.501l10.207-1.556L15.374.41C15.49.159 15.734 0 16 0s.51.159.626.41z" style="fill:var(--color1, #fff2da)"/>
    </symbol>
    <symbol id="icon-star" viewBox="0 0 33 32">
      <path fill="#f0a820" d="m16.975.41 4.566 9.704 10.207 1.556c.264.041.483.235.566.501s.014.557-.178.752l-7.384 7.551 1.743 10.665c.046.275-.062.553-.278.718s-.502.186-.739.056l-9.13-5.034-9.13 5.036c-.236.13-.523.109-.739-.055s-.324-.443-.278-.718l1.743-10.667-7.386-7.552c-.191-.195-.26-.487-.177-.752s.301-.46.566-.501l10.207-1.556L15.722.41c.116-.251.36-.41.626-.41s.51.159.626.41z" style="fill:var(--color2, #f0a820)"/>
    </symbol>
  </defs>
</svg>
